<?xml version='1.0' encoding='utf-8'?>
<svg xmlns:xlink="http://www.w3.org/1999/xlink" xmlns="http://www.w3.org/2000/svg" width="4365.8857" height="3258.3948" viewBox="0 0 1155.1406 862.11697" version="1.1" id="svg5"> <defs id="defs2"> <linearGradient id="linearGradient6741"> <stop style="stop-color:#ffb380;stop-opacity:1;" offset="0" id="stop6737"/> <stop style="stop-color:#ffcfaf;stop-opacity:1" offset="1" id="stop6739"/> </linearGradient> <linearGradient id="linearGradient4198"> <stop style="stop-color:#af9630;stop-opacity:1" offset="0" id="stop4194"/> <stop style="stop-color:#ccb44c;stop-opacity:1" offset="1" id="stop4196"/> </linearGradient> <linearGradient id="linearGradient4347"> <stop style="stop-color:#f451f4;stop-opacity:1;" offset="0" id="stop4345"/> </linearGradient> <radialGradient xlink:href="#linearGradient4198" id="radialGradient1096" gradientUnits="userSpaceOnUse" gradientTransform="matrix(-0.14952077,0.58708498,-0.60674917,-0.15452891,481.79693,-89.377677)" cx="362.38254" cy="107.43109" fx="362.38254" fy="107.43109" r="98.771683"/> <radialGradient xlink:href="#linearGradient6741" id="radialGradient1098" gradientUnits="userSpaceOnUse" gradientTransform="matrix(0.33153595,-0.94344259,0.57967508,0.20370411,211.20721,467.44114)" cx="406.92493" cy="104.89924" fx="406.92493" fy="104.89924" r="28.089025"/> <radialGradient xlink:href="#linearGradient6741" id="radialGradient1100" gradientUnits="userSpaceOnUse" gradientTransform="matrix(0.09572197,-0.99540811,0.71932524,0.06917286,269.55088,432.09114)" cx="360.59689" cy="78.586098" fx="360.59689" fy="78.586098" r="30.61153"/> <radialGradient xlink:href="#linearGradient6741" id="radialGradient1102" gradientUnits="userSpaceOnUse" gradientTransform="matrix(0.29819952,-0.95450356,0.55096057,0.17212736,181.52454,344.20235)" cx="307.09421" cy="61.700108" fx="307.09421" fy="61.700108" r="19.325365"/> <filter style="color-interpolation-filters:sRGB" id="filter2494" x="-0.21762657" y="-0.45842605" width="1.4352531" height="1.9168521"> <feGaussianBlur stdDeviation="4.6581267" id="feGaussianBlur2496"/> </filter> </defs> <g id="layer1" transform="translate(509.10313,294.41781)"> <g id="path6946"/> <g id="g1158" transform="matrix(1.5776023,0,0,1.6380741,-39.546799,-87.186854)" style="stroke-width:0.622063"> <g id="g1094" transform="matrix(-2.9218287,0,0,3.3124346,1087.9127,-278.11719)" style="stroke-width:0.199955"> <path style="opacity:1;fill:url(#radialGradient1096);fill-opacity:1;stroke:none;stroke-width:0.0529048px;stroke-linecap:butt;stroke-linejoin:miter;stroke-opacity:1" d="M 461.20117,126.14578 C 460.26063,110.87523 449.79777,98.366706 433.08021,85.577451 421.71764,76.665305 409.49926,68.944985 394.58817,64.820685 379.28819,60.588823 363.5615,52.367937 343.65328,51.093178 c -14.60313,-3.068441 -13.00644,-1.086039 -17.56872,-1.023904 -11.63138,0.338744 -21.59472,-3.296605 -47.60782,12.566998 -7.0347,5.632364 -12.41335,13.138371 -14.28348,20.752116 -1.28637,9.000926 -3.03721,17.293192 5.77033,28.190682 12.46634,11.59999 27.23844,18.61098 42.70312,24.9431 17.19901,6.72405 38.38104,14.61676 51.78944,19.98787 9.93486,1.98316 16.54207,4.60994 24.93274,6.79253 8.45529,1.22452 39.76736,8.42944 59.31449,-5.98033 2.5588,-2.52814 7.70229,-8.06283 11.32397,-16.00422 1.78875,-3.92226 1.82198,-8.84277 1.17382,-15.17223 z" id="path1086"/> <path style="opacity:1;fill:url(#radialGradient1098);fill-opacity:1;stroke:#ffd4b8;stroke-width:0.105809;stroke-linecap:butt;stroke-linejoin:miter;stroke-miterlimit:4;stroke-dasharray:none;stroke-opacity:1" d="m 435.01397,90.911015 c -31.71036,-4.72048 -42.2569,13.859715 -56.17805,28.724585 19.61793,-8.00102 35.86324,-20.067278 56.17805,-28.724585 z" id="path1088"/> <path style="opacity:1;fill:url(#radialGradient1100);fill-opacity:1;stroke:#ffd1b1;stroke-width:0.105809;stroke-linecap:butt;stroke-linejoin:miter;stroke-miterlimit:4;stroke-dasharray:none;stroke-opacity:1" d="M 391.20843,64.486113 C 377.45863,61.11362 370.23751,60.658172 359.11351,63.249649 345.31862,71.178054 337.09634,83.391184 329.98537,95.585751 353.89225,78.82894 363.08719,72.77336 385.66217,65.52743 Z" id="path1090"/> <path style="opacity:1;fill:url(#radialGradient1102);fill-opacity:1;stroke:#ffd2b5;stroke-width:0.105809;stroke-linecap:butt;stroke-linejoin:miter;stroke-miterlimit:4;stroke-dasharray:none;stroke-opacity:1" d="m 321.26594,50.723183 c -25.77217,-1.599723 -31.95923,16.600456 -33.49709,22.313431 16.27481,-7.825005 24.6839,-16.245073 38.65073,-22.673013 z" id="path1092"/> </g> <path style="opacity:0.295935;mix-blend-mode:normal;fill:#f30000;fill-opacity:1;stroke:none;stroke-width:0.0155651px;stroke-linecap:butt;stroke-linejoin:miter;stroke-opacity:1;filter:url(#filter2494)" d="m 249.02443,174.21401 c -2.01328,-0.61184 -6.94868,10.27544 20.11248,2.04681 l 21.61353,-8.6861 c 12.71036,-8.06335 6.36964,-13.31295 6.35608,-12.53618" id="path1312" transform="matrix(9.9311191,0,0,11.258765,-2642.8762,-1745.3286)"/> </g> </g> </svg>